/* XPM */
static char *_cc6ea76a90f4b46d63c85a2a78d80a4SATXHrC9tqDJxoGv[] = {
/* columns rows colors chars-per-pixel */
"32 32 9 1 ",
"  c None",
". c black",
"X c #663931",
"o c #DF7126",
"O c #FBF236",
"+ c #99E550",
"@ c #5B6EE1",
"# c magenta",
"$ c white",
/* pixels */
"################################",
"################################",
"################################",
"################################",
"###@@@O#########################",
"###@@@OO+++#####################",
"####@@OO++++####################",
"####@@@OO++++##++++#############",
"####@@@@O++++#+.$++#############",
"#####@@@OO++++$.$oo#############",
"#####@@@@OO+++$$$oo#############",
"#######@@@O++++++ooo#+++########",
"########@@@+++++++o#+++++#######",
"#########@@+++++++++++++++######",
"#########@+++++++++++OOOOO######",
"##########++++++++OOOOOO@@@@@###",
"#########X++++++@@@@@@@@@@@@####",
"##########+++++##@@@@@@@@@######",
"#########+++++######@@@#########",
"########++++X###################",
"#######+++++####################",
"######++++++####################",
"######++++++####################",
"######++++++####################",
"######+++++#####################",
"######++########################",
"################################",
"################################",
"################################",
"################################",
"################################",
"################################"
};
